HIERARCHY
ROOT hips
{
  OFFSET 0 10.6860622 2.3727825e-15
  CHANNELS 6 Xposition Yposition Zposition Yrotation Xrotation Zrotation
  JOINT leftUpperLeg
  {
    OFFSET 0.6642549969 -0.9402397400000004 0
    CHANNELS 3 Yrotation Xrotation Zrotation
    JOINT leftLowerLeg
    {
      OFFSET 0 -3.997221335632195 0
      CHANNELS 3 Yrotation Xrotation Zrotation
      JOINT leftFoot
      {
        OFFSET -0.13777839790000004 -4.6145792000000005 -0.22186036399999998
        CHANNELS 3 Yrotation Xrotation Zrotation
        JOINT leftToes
        {
          OFFSET -0.03777410834999995 -0.9130806927000008 0.85230013
          CHANNELS 3 Yrotation Xrotation Zrotation
          End Site
          {
            OFFSET -0.03777410834999995 -0.9130806927000008 0.85230013
          }
        }
      }
    }
  }
  JOINT rightUpperLeg
  {
    OFFSET -0.6642778626 -0.9402397400000004 0
    CHANNELS 3 Yrotation Xrotation Zrotation
    JOINT rightLowerLeg
    {
      OFFSET 0 -3.997221452859387 0
      CHANNELS 3 Yrotation Xrotation Zrotation
      JOINT rightFoot
      {
        OFFSET 0.1377926176 -4.6145792000000005 -0.22185782299999995
        CHANNELS 3 Yrotation Xrotation Zrotation
        JOINT rightToes
        {
          OFFSET 0.037780746850000047 -0.9130806927000008 0.85230167
          CHANNELS 3 Yrotation Xrotation Zrotation
          End Site
          {
            OFFSET 0.037780746850000047 -0.9130806927000008 0.85230167
          }
        }
      }
    }
  }
  JOINT spine
  {
    OFFSET 0 0.13988381660000015 0
    CHANNELS 3 Yrotation Xrotation Zrotation
    JOINT chest
    {
      OFFSET 0 0.6191039003973773 0
      CHANNELS 3 Yrotation Xrotation Zrotation
      JOINT upperChest
      {
        OFFSET 0 0.9855186130586943 0
        CHANNELS 3 Yrotation Xrotation Zrotation
        JOINT leftShoulder
        {
          OFFSET 0.1807663869 1.5087829790000005 0
          CHANNELS 3 Yrotation Xrotation Zrotation
          JOINT leftUpperArm
          {
            OFFSET 0.5985063006419806 0 0
            CHANNELS 3 Yrotation Xrotation Zrotation
            JOINT leftLowerArm
            {
              OFFSET 2.2993332369501065 0 0
              CHANNELS 3 Yrotation Xrotation Zrotation
              JOINT leftHand
              {
                OFFSET 2.395047042602395 0 0
                CHANNELS 3 Yrotation Xrotation Zrotation
                JOINT leftIndexProximal
                {
                  OFFSET 0.5766295810000004 0.04556643899499946 0.17265095988184
                  CHANNELS 3 Yrotation Xrotation Zrotation
                  JOINT leftIndexIntermediate
                  {
                    OFFSET 0.2957229000000008 -0.019352197700001517 -0.007932640616999987
                    CHANNELS 3 Yrotation Xrotation Zrotation
                    JOINT leftIndexDistal
                    {
                      OFFSET 0.19008243099999922 -0.012484908149998475 -0.002786250786000012
                      CHANNELS 3 Yrotation Xrotation Zrotation
                      End Site
                      {
                        OFFSET 0.19008243099999922 -0.012484908149998475 -0.002786250786000012
                      }
                    }
                  }
                }
                JOINT leftMiddleProximal
                {
                  OFFSET 0.5834975091000001 0.0524350405149987 0.02204081888183999
                  CHANNELS 3 Yrotation Xrotation Zrotation
                  JOINT leftMiddleIntermediate
                  {
                    OFFSET 0.33880573540000003 -0.019871473270000717 -0.00000971183179999946
                    CHANNELS 3 Yrotation Xrotation Zrotation
                    JOINT leftMiddleDistal
                    {
                      OFFSET 0.20676022730000088 -0.012221336379999448 0.0001471936708000235
                      CHANNELS 3 Yrotation Xrotation Zrotation
                      End Site
                      {
                        OFFSET 0.20676022730000088 -0.012221336379999448 0.0001471936708000235
                      }
                    }
                  }
                }
                JOINT leftLittleProximal
                {
                  OFFSET 0.5344154683999995 -0.012880921405001189 -0.24414037221816004
                  CHANNELS 3 Yrotation Xrotation Zrotation
                  JOINT leftLittleIntermediate
                  {
                    OFFSET 0.21758961730000093 -0.011650919939999227 0.011893592810000034
                    CHANNELS 3 Yrotation Xrotation Zrotation
                    JOINT leftLittleDistal
                    {
                      OFFSET 0.1475273964999999 -0.008152365682999818 0.006001092492999946
                      CHANNELS 3 Yrotation Xrotation Zrotation
                      End Site
                      {
                        OFFSET 0.1475273964999999 -0.008152365682999818 0.006001092492999946
                      }
                    }
                  }
                }
                JOINT leftRingProximal
                {
                  OFFSET 0.5799399463000003 0.026911854694997794 -0.12150566991816003
                  CHANNELS 3 Yrotation Xrotation Zrotation
                  JOINT leftRingIntermediate
                  {
                    OFFSET 0.26167887460000006 -0.013480186499999602 0.010996293000000053
                    CHANNELS 3 Yrotation Xrotation Zrotation
                    JOINT leftRingDistal
                    {
                      OFFSET 0.17667108799999987 -0.008990287899999228 0.0055541023999999065
                      CHANNELS 3 Yrotation Xrotation Zrotation
                      End Site
                      {
                        OFFSET 0.17667108799999987 -0.008990287899999228 0.0055541023999999065
                      }
                    }
                  }
                }
                JOINT leftThumbProximal
                {
                  OFFSET 0.11018806699999972 -0.09448718900500053 0.17047963138184
                  CHANNELS 3 Yrotation Xrotation Zrotation
                  JOINT leftThumbIntermediate
                  {
                    OFFSET 0.31062601459999983 -0.08126270900000132 0.15443142000000007
                    CHANNELS 3 Yrotation Xrotation Zrotation
                    JOINT leftThumbDistal
                    {
                      OFFSET 0.21627175790000086 -0.08833193599999878 0.018771167799999988
                      CHANNELS 3 Yrotation Xrotation Zrotation
                      End Site
                      {
                        OFFSET 0.21627175790000086 -0.08833193599999878 0.018771167799999988
                      }
                    }
                  }
                }
              }
            }
          }
        }
        JOINT neck
        {
          OFFSET 0 1.5463305265074576 0
          CHANNELS 3 Yrotation Xrotation Zrotation
          JOINT head
          {
            OFFSET 0 0.8456443600000344 0
            CHANNELS 3 Yrotation Xrotation Zrotation
            JOINT leftEye
            {
              OFFSET 0.30408573140000006 0.5104519199999995 0.1276382305
              CHANNELS 3 Yrotation Xrotation Zrotation
              End Site
              {
                OFFSET 0.30408573140000006 0.5104519199999995 0.1276382305
              }
            }
            JOINT rightEye
            {
              OFFSET -0.30409491089999996 0.5104519199999995 0.1276379445
              CHANNELS 3 Yrotation Xrotation Zrotation
              End Site
              {
                OFFSET -0.30409491089999996 0.5104519199999995 0.1276379445
              }
            }
            JOINT jaw
            {
              OFFSET -3.155239131000001e-7 -0.11984121820000082 0.60178107
              CHANNELS 3 Yrotation Xrotation Zrotation
              End Site
              {
                OFFSET -3.155239131000001e-7 -0.11984121820000082 0.60178107
              }
            }
          }
        }
        JOINT rightShoulder
        {
          OFFSET -0.1807303465 1.5087829790000005 0
          CHANNELS 3 Yrotation Xrotation Zrotation
          JOINT rightUpperArm
          {
            OFFSET -0.5985063796536958 0 0
            CHANNELS 3 Yrotation Xrotation Zrotation
            JOINT rightLowerArm
            {
              OFFSET -2.2993322059002854 0 0
              CHANNELS 3 Yrotation Xrotation Zrotation
              JOINT rightHand
              {
                OFFSET -2.395045314457259 0 0
                CHANNELS 3 Yrotation Xrotation Zrotation
                JOINT rightIndexProximal
                {
                  OFFSET -0.5764487688300002 0.0441371204405987 0.17361932004999997
                  CHANNELS 3 Yrotation Xrotation Zrotation
                  JOINT rightIndexIntermediate
                  {
                    OFFSET -0.29573011380000047 -0.01934826376999843 -0.007698921482999974
                    CHANNELS 3 Yrotation Xrotation Zrotation
                    JOINT rightIndexDistal
                    {
                      OFFSET -0.19008373999999884 -0.012503266380000655 -0.0026365778999999897
                      CHANNELS 3 Yrotation Xrotation Zrotation
                      End Site
                      {
                        OFFSET -0.19008373999999884 -0.012503266380000655 -0.0026365778999999897
                      }
                    }
                  }
                }
                JOINT rightMiddleProximal
                {
                  OFFSET -0.5834852037300005 0.05211639405060153 0.02307162440000001
                  CHANNELS 3 Yrotation Xrotation Zrotation
                  JOINT rightMiddleIntermediate
                  {
                    OFFSET -0.33880114510000003 -0.019952774050000954 0.0002455003561999819
                    CHANNELS 3 Yrotation Xrotation Zrotation
                    JOINT rightMiddleDistal
                    {
                      OFFSET -0.20675694929999955 -0.012273788999999091 0.00030209124000002766
                      CHANNELS 3 Yrotation Xrotation Zrotation
                      End Site
                      {
                        OFFSET -0.20675694929999955 -0.012273788999999091 0.00030209124000002766
                      }
                    }
                  }
                }
                JOINT rightLittleProximal
                {
                  OFFSET -0.5346811737299992 -0.011214256288399227 -0.24363941305000003
                  CHANNELS 3 Yrotation Xrotation Zrotation
                  JOINT rightLittleIntermediate
                  {
                    OFFSET -0.21757715980000092 -0.011771559690000988 0.01201554387
                    CHANNELS 3 Yrotation Xrotation Zrotation
                    JOINT rightLittleDistal
                    {
                      OFFSET -0.1475201849000004 -0.00822055339600003 0.006082065407000015
                      CHANNELS 3 Yrotation Xrotation Zrotation
                      End Site
                      {
                        OFFSET -0.1475201849000004 -0.00822055339600003 0.006082065407000015
                      }
                    }
                  }
                }
                JOINT rightRingProximal
                {
                  OFFSET -0.5800810755299999 0.027657985680600072 -0.12066365025000003
                  CHANNELS 3 Yrotation Xrotation Zrotation
                  JOINT rightRingIntermediate
                  {
                    OFFSET -0.26166445029999974 -0.013623118409999302 0.011164098990000045
                    CHANNELS 3 Yrotation Xrotation Zrotation
                    JOINT rightRingDistal
                    {
                      OFFSET -0.17666387530000027 -0.009072900100000503 0.005668185599999959
                      CHANNELS 3 Yrotation Xrotation Zrotation
                      End Site
                      {
                        OFFSET -0.17666387530000027 -0.009072900100000503 0.005668185599999959
                      }
                    }
                  }
                }
                JOINT rightThumbProximal
                {
                  OFFSET -0.10997596379000074 -0.09577489355940072 0.16989765924999997
                  CHANNELS 3 Yrotation Xrotation Zrotation
                  JOINT rightThumbIntermediate
                  {
                    OFFSET -0.31036620999999986 -0.08229339117999834 0.15440884469999996
                    CHANNELS 3 Yrotation Xrotation Zrotation
                    JOINT rightThumbDistal
                    {
                      OFFSET -0.21631306399999906 -0.08825326400000111 0.018656797720000014
                      CHANNELS 3 Yrotation Xrotation Zrotation
                      End Site
                      {
                        OFFSET -0.21631306399999906 -0.08825326400000111 0.018656797720000014
                      }
                    }
                  }
                }
              }
            }
          }
        }
      }
    }
  }
}
MOTION
Frames: 6
Frame Time: 0.03333333333333333
-2.279071759254542 -10.23284665947574 -1.2407130561028794 0 -90 0 45.34009285436361 -53.80216577951455 -32.28226258354494 9.101114149775508 69.91565618908588 19.621580021144936 -14.14250885703304 25.66974007979723 -2.766274317847641 0 0 0 -1.9043515496586787 -63.986176561707964 -61.264298095439635 -137.89477571196306 77.58333158635399 -144.911542048898 56.59825488408714 51.26290858541318 -16.802764598397513 0 0 0 -10.147800948228866 32.64431916586425 -22.024742728694978 -23.148825981634573 31.553849866742556 -13.308685629644906 0 0 0 -36.49975106226885 -1.853371875812179 1.41207368079808 71.63590141406117 -49.31965599997377 -92.63250481260035 -84.35826437092389 3.22430581766481 -57.54929077651171 -13.769982185912244 12.69450561982565 47.478533626527295 0 0 0 0 0 0 0 0 0 0 0 0 0 0 0 0 0 0 0 0 0 0 0 0 0 0 0 0 0 0 0 0 0 0 0 0 0 0 0 0 0 0 0 0 0 -16.361700496355077 -4.266112845725998 3.27786454965612 34.62944392018153 -31.634249487584114 -9.162650617595107 0 0 0 0 0 0 0 0 0 -45.07955842376157 -12.392862649167455 34.44732556823535 24.571939976732118 51.24732971503744 48.724804079395454 10.012719237078251 43.82139770210909 -76.22523796547401 7.82101993055368 7.359587249566107 -5.489496083612583 0 0 0 0 0 0 0 0 0 0 0 0 0 0 0 0 0 0 0 0 0 0 0 0 0 0 0 0 0 0 0 0 0 0 0 0 0 0 0 0 0 0 0 0 0
-2.279071759254542 -10.23284665947574 -1.2407130561028794 0 -90 0 45.34009285436361 -53.80216577951455 -32.28226258354494 9.101114149775508 69.91565618908588 19.621580021144936 -14.14250885703304 25.66974007979723 -2.766274317847641 0 0 0 -1.8616421204178937 -63.93853998516959 -61.23553664176224 -137.89477571196306 77.58333158635399 -144.911542048898 56.599769144515186 51.21280762790868 -16.732793025851898 0 0 0 -10.147800948228866 32.64431916586425 -22.024742728694978 -23.106740001508015 31.392989906049873 -13.228125546063085 0 0 0 -36.489109656335856 -1.7334262058280823 1.260473504022318 71.63590141406117 -49.31965599997377 -92.63250481260035 -84.35826437092389 3.22430581766481 -57.54929077651171 -13.769982185912244 12.69450561982565 47.478533626527295 0 0 0 0 0 0 0 0 0 0 0 0 0 0 0 0 0 0 0 0 0 0 0 0 0 0 0 0 0 0 0 0 0 0 0 0 0 0 0 0 0 0 0 0 0 -16.367356880207183 -4.518320816695238 3.352132156137493 34.35142530958711 -30.968785079716678 -8.627591285527835 0 0 0 0 0 0 0 0 0 -45.07955842376157 -12.392862649167455 34.44732556823535 24.571939976732118 51.24732971503744 48.724804079395454 10.012719237078251 43.82139770210909 -76.22523796547401 7.884703567000719 7.44882240443182 -5.3917867957723065 0 0 0 0 0 0 0 0 0 0 0 0 0 0 0 0 0 0 0 0 0 0 0 0 0 0 0 0 0 0 0 0 0 0 0 0 0 0 0 0 0 0 0 0 0
-2.279071759254542 -10.23284665947574 -1.2407130561028794 0 -90 0 45.34009285436361 -53.80216577951455 -32.28226258354494 9.101114149775508 69.91565618908588 19.621580021144936 -14.14250885703304 25.66974007979723 -2.766274317847641 0 0 0 -1.8189531856806203 -63.890914413252546 -61.20674639753276 -137.89477571196306 77.58333158635399 -144.911542048898 56.6011935046649 51.16271755822612 -16.662900591743398 0 0 0 -10.147800948228866 32.64431916586425 -22.024742728694978 -23.06498977937473 31.232057598264596 -13.147829947108807 0 0 0 -36.47877883154714 -1.613427812790171 1.1088734856117886 71.63590141406117 -49.31965599997377 -92.63250481260035 -84.35826437092389 3.22430581766481 -57.54929077651171 -13.769982185912244 12.69450561982565 47.478533626527295 0 0 0 0 0 0 0 0 0 0 0 0 0 0 0 0 0 0 0 0 0 0 0 0 0 0 0 0 0 0 0 0 0 0 0 0 0 0 0 0 0 0 0 0 0 -16.373348149911855 -4.770612694147263 3.4264794053773504 34.08161435524281 -30.298841373627425 -8.098148773714913 0 0 0 0 0 0 0 0 0 -45.07955842376157 -12.392862649167455 34.44732556823535 24.571939976732118 51.24732971503744 48.724804079395454 10.012719237078251 43.82139770210909 -76.22523796547401 7.948558919512456 7.537956885838723 -5.29394680901143 0 0 0 0 0 0 0 0 0 0 0 0 0 0 0 0 0 0 0 0 0 0 0 0 0 0 0 0 0 0 0 0 0 0 0 0 0 0 0 0 0 0 0 0 0
-2.279071759254542 -10.23284665947574 -1.2407130561028794 0 -90 0 45.34009285436361 -53.80216577951455 -32.28226258354494 9.101114149775508 69.91565618908588 19.621580021144936 -14.14250885703304 25.66974007979723 -2.766274317847641 0 0 0 -1.7762821670883084 -63.843299757224365 -61.17792417841922 -137.89477571196306 77.58333158635399 -144.911542048898 56.602513912436564 51.11262198313711 -16.59308494673449 0 0 0 -10.147800948228866 32.64431916586425 -22.024742728694978 -23.023571857950067 31.071075969693364 -13.067808808459453 0 0 0 -36.46876317339325 -1.4934025492815506 0.9573036545822479 71.63590141406117 -49.31965599997377 -92.63250481260035 -84.35826437092389 3.22430581766481 -57.54929077651171 -13.769982185912244 12.69450561982565 47.478533626527295 0 0 0 0 0 0 0 0 0 0 0 0 0 0 0 0 0 0 0 0 0 0 0 0 0 0 0 0 0 0 0 0 0 0 0 0 0 0 0 0 0 0 0 0 0 -16.37966950503419 -5.022896614306138 3.5008807391972776 33.82075199467429 -29.62679861194298 -7.575903033846795 0 0 0 0 0 0 0 0 0 -45.07955842376157 -12.392862649167455 34.44732556823535 24.571939976732118 51.24732971503744 48.724804079395454 10.012719237078251 43.82139770210909 -76.22523796547401 8.012580521301661 7.626982233810996 -5.195986580592541 0 0 0 0 0 0 0 0 0 0 0 0 0 0 0 0 0 0 0 0 0 0 0 0 0 0 0 0 0 0 0 0 0 0 0 0 0 0 0 0 0 0 0 0 0
-2.279071759254542 -10.23284665947574 -1.2407130561028794 0 -90 0 45.34009285436361 -53.80216577951455 -32.28226258354494 9.101114149775508 69.91565618908588 19.621580021144936 -14.14250885703304 25.66974007979723 -2.766274317847641 0 0 0 -1.7478442095281417 -63.81156267404249 -61.15869715119955 -137.89477571196306 77.58333158635399 -144.911542048898 56.603336132831984 51.07921703253825 -16.54658025024956 0 0 0 -10.147800948228866 32.64431916586425 -22.024742728694978 -22.99613600148733 30.96370706800273 -13.014600984611345 0 0 0 -36.46227018620839 -1.4133570700797693 0.8562554020011559 71.63590141406117 -49.31965599997377 -92.63250481260035 -84.35826437092389 3.22430581766481 -57.54929077651171 -13.769982185912244 12.69450561982565 47.478533626527295 0 0 0 0 0 0 0 0 0 0 0 0 0 0 0 0 0 0 0 0 0 0 0 0 0 0 0 0 0 0 0 0 0 0 0 0 0 0 0 0 0 0 0 0 0 -16.3840671423909 -5.1911338468492705 3.550528862819576 33.65119160219801 -29.176271473978094 -7.230560320198444 0 0 0 0 0 0 0 0 0 -45.07955842376157 -12.392862649167455 34.44732556823535 24.571939976732118 51.24732971503744 48.724804079395454 10.012719237078251 43.82139770210909 -76.22523796547401 8.055360151055455 7.686280428302364 -5.130606199682786 0 0 0 0 0 0 0 0 0 0 0 0 0 0 0 0 0 0 0 0 0 0 0 0 0 0 0 0 0 0 0 0 0 0 0 0 0 0 0 0 0 0 0 0 0
-2.279071759254542 -10.23284665947574 -1.2407130561028794 0 -90 0 45.34009285436361 -53.80216577951455 -32.28226258354494 9.101114149775508 69.91565618908588 19.621580021144936 -14.14250885703304 25.66974007979723 -2.766274317847641 0 0 0 -1.7194140726100267 -63.7798303772202 -61.13945494894133 -137.89477571196306 77.58333158635399 -144.911542048898 56.6041128394506 51.0458198874529 -16.500109468416404 0 0 0 -10.147800948228866 32.64431916586425 -22.024742728694978 -22.968849087238137 30.856315537886594 -12.96151135585673 0 0 0 -36.45591689801278 -1.3333002588106087 0.7552195270395967 71.63590141406117 -49.31965599997377 -92.63250481260035 -84.35826437092389 3.22430581766481 -57.54929077651171 -13.769982185912244 12.69450561982565 47.478533626527295 0 0 0 0 0 0 0 0 0 0 0 0 0 0 0 0 0 0 0 0 0 0 0 0 0 0 0 0 0 0 0 0 0 0 0 0 0 0 0 0 0 0 0 0 0 -16.388612547525884 -5.359366663887811 3.600203028424496 33.485467756966344 -28.724866911305384 -6.888240337290267 0 0 0 0 0 0 0 0 0 -45.07955842376157 -12.392862649167455 34.44732556823535 24.571939976732118 51.24732971503744 48.724804079395454 10.012719237078251 43.82139770210909 -76.22523796547401 8.098213396514117 7.745529177082171 -5.065171765133327 0 0 0 0 0 0 0 0 0 0 0 0 0 0 0 0 0 0 0 0 0 0 0 0 0 0 0 0 0 0 0 0 0 0 0 0 0 0 0 0 0 0 0 0 0
